HIERARCHY
ROOT Hips
{
	OFFSET	0.00	0.00	0.00
	CHANNELS 6 Xposition Yposition Zposition Zrotation Xrotation Yrotation
	JOINT Spine
	{
		OFFSET	 0.00	0.01	 0.00
		CHANNELS 3 Zrotation Xrotation Yrotation
		JOINT Spine1
		{
			OFFSET	 0.00	 2.45913012437421	 0.00
			CHANNELS 3 Zrotation Xrotation Yrotation
            JOINT Neck
            {
                OFFSET	 0.00	 2.48462964506057	 0.00
                CHANNELS 3 Zrotation Xrotation Yrotation
                JOINT Head
                {
                    OFFSET	 0.00	 0.927524780924562	 0.00
                    CHANNELS 3 Zrotation Xrotation Yrotation
                    End Site 
                    {
                        OFFSET	 0.00	 1.14999962169752	 0.00
                    }
                }
            }
			JOINT LeftShoulder
			{
				OFFSET	 0.00	 2.48462964506057	 0.00
				CHANNELS 3 Zrotation Xrotation Yrotation
				JOINT LeftUpArm
				{
					OFFSET	 0.00	 1.24881979654096	 0.00
					CHANNELS 3 Zrotation Xrotation Yrotation
					JOINT LeftForeArm
					{
						OFFSET	 0.00	2.59758046908119	 0.00
						CHANNELS 3 Zrotation Xrotation Yrotation
						JOINT LeftHand
						{
							OFFSET	 0.00	2.45542024364365	 0.00
							CHANNELS 3 Zrotation Xrotation Yrotation
							JOINT LeftHandThumb 
							{
								OFFSET	 0.00	0.00	 0.00
								CHANNELS 3 Zrotation Xrotation Yrotation
								End Site
								{
									OFFSET	 0.00	0.00	1.00000003353624
								}
							}
							JOINT L_Wrist_End 
							{
								OFFSET	 0.00	0.99999967115358	 0.00
								CHANNELS 3 Zrotation Xrotation Yrotation
								End Site 
								{
									OFFSET	 0.00	 0.00	 0.00
								}
							}
						}
					}
				}
			}
			JOINT RightShoulder
			{
				OFFSET	 0.00	 2.48462964506057	 0.00
				CHANNELS 3 Zrotation Xrotation Yrotation
				JOINT RightUpArm
				{
					OFFSET	 0.00	 1.24881979654096	 0.00
					CHANNELS 3 Zrotation Xrotation Yrotation
					JOINT RightForeArm
					{
						OFFSET	 0.00	2.59758046908119	 0.00
						CHANNELS 3 Zrotation Xrotation Yrotation
						JOINT RightHand
						{
							OFFSET	 0.00	2.45542024364365	 0.00
							CHANNELS 3 Zrotation Xrotation Yrotation
							JOINT RightHandThumb 
							{
								OFFSET	 0.00	0.00	 0.00
								CHANNELS 3 Zrotation Xrotation Yrotation
								End Site
								{
									OFFSET	 0.00	0.00	1.00000003353624
								}
							}
							JOINT R_Wrist_End 
							{
								OFFSET	 0.00	0.99999967115358	 0.00
								CHANNELS 3 Zrotation Xrotation Yrotation
								End Site 
								{
									OFFSET	 0.00	 0.00	 0.00
								}
							}
						}
					}
				}
			}
		}
	}
	JOINT LeftUpLeg
	{
		OFFSET	 1.2719394002717	 0.00	 0.00
		CHANNELS 3 Zrotation Xrotation Yrotation
		JOINT LeftLowLeg
		{
			OFFSET	 0.00	-4.3429100912261	 0.00
			CHANNELS 3 Zrotation Xrotation Yrotation
			JOINT LeftFoot
			{
				OFFSET	 0.00	-4.48767017425826	 0.00
				CHANNELS 3 Zrotation Xrotation Yrotation
				JOINT LeftToeBase
                {
                    OFFSET	 0.00	0.00	 1.51507020887566
                    CHANNELS 3 Zrotation Xrotation Yrotation
                    End Site 
                    {
                        OFFSET	 0.00	0.00	 0.75000010571191
                    }
                }
			}
		}
	}
	JOINT RightUpLeg
	{
		OFFSET	 -1.2719393604653	 0.00	 0.00
		CHANNELS 3 Zrotation Xrotation Yrotation
		JOINT RightLowLeg
		{
			OFFSET	 0.00	-4.3429100912261	 0.00
			CHANNELS 3 Zrotation Xrotation Yrotation
			JOINT RightFoot
			{
				OFFSET	 0.00	-4.48767017425826	 0.00
				CHANNELS 3 Zrotation Xrotation Yrotation
				JOINT RightToeBase
                {
                    OFFSET	 0.00	0.00	 1.51507020887566
                    CHANNELS 3 Zrotation Xrotation Yrotation
                    End Site 
                    {
                        OFFSET	 0.00	0.00	 0.749999965609858
                    }
                }   
			}
		}
	}
}
MOTION 
Frames:	12 
Frame Time: 0.02 
  -4.739249877929687 0.9708950042724609 10.3468994140625 -62.8153 83.0045 51.0603 2.51411 -13.3944 0.413773 0.991929 27.0965 -6.03769 22.3806 60.0369 -32.4597 36.1064 -51.1289 35.7995 -114.2676 2.45303 -13.8492 -20.4787 1.11521 27.0114 0.0 40.5825 0.0 12.9949 -5.11948 2.62176 0.0 0.0 0.0 0.0 0.0 0.0 112.7518 -1.94747 2.65666 5.88735 21.6336 -1.25503 0.0 61.169 0.0 13.8358 1.23716 -4.42038 0.0 0.0 0.0 0.0 0.0 0.0 0.67128 7.81075 11.9761 0.0 6.43666 0.0 -1.34117 4.9538 7.24378 0.0 -10.91029 0.0 8.10277 -15.6767 11.1973 0.0 37.4426 0.0 20.8861 10.57666 -23.8592 0.0 -26.594799 0.0 
  -4.731319885253907 0.8734369659423828 10.335 -63.9542 83.2806 52.0661 2.75988 -13.7384 0.517925 0.826546 27.0472 -6.04781 21.2872 59.7577 -31.3911 35.5599 -51.213 35.2337 -113.974 2.78391 -13.9174 -19.8787 2.13338 27.4214 0.0 40.5282 0.0 12.3658 -4.8671 3.70271 0.0 0.0 0.0 0.0 0.0 0.0 113.1462 -1.72506 2.85816 6.7976 21.8821 2.00773 0.0 62.2047 0.0 17.292 0.626775 -0.486681 0.0 0.0 0.0 0.0 0.0 0.0 0.327072 8.39533 12.3849 0.0 5.87493 0.0 -1.3772 4.7153997 6.88565 0.0 -10.88545 0.0 8.0865 -16.2816 12.1834 0.0 33.7305 0.0 20.4795 10.96949 -23.4688 0.0 -26.3552 0.0 
  -4.722630004882813 0.7757029724121094 10.318299560546874 -65.2928 83.6891 53.3316 3.07527 -14.2347 0.757546 0.458652 27.2252 -5.97205 20.0231 59.177 -30.181 34.9463 -51.1734 34.6279 -113.638504 3.06448 -14.1212 -19.4331 3.28115 27.7946 0.0 40.4423 0.0 11.7797 -4.73749 4.9392 0.0 0.0 0.0 0.0 0.0 0.0 113.5905 -1.52861 3.1899 7.69891 22.0315 4.96006 0.0 62.879 0.0 19.1474 1.04675 2.89306 0.0 0.0 0.0 0.0 0.0 0.0 -0.131418 8.9237 12.8856 0.0 5.22161 0.0 -1.38358 4.5045004 6.41227 0.0 -10.90751 0.0 7.91804 -17.0055 13.0269 0.0 30.2318 0.0 20.0327 11.37187 -22.8002 0.0 -26.4054 0.0 
  -4.712909851074219 0.6785240173339844 10.299100341796875 -67.0195 84.1358 55.2835 3.34982 -14.8133 0.901235 0.179313 27.5258 -5.97367 18.616 58.3531 -28.8831 34.3842 -51.0377 33.7049 -113.4642 3.34708 -14.3694 -19.0292 4.47121 28.0704 0.0 40.3014 0.0 11.352 -4.69856 5.77641 0.0 0.0 0.0 0.0 0.0 0.0 113.9998 -1.2437 3.41633 8.36385 22.022 7.65852 0.0 63.2401 0.0 19.2446 2.20227 5.60564 0.0 0.0 0.0 0.0 0.0 0.0 -0.57095 9.32777 13.0129 0.0 4.65324 0.0 -1.39745 4.2297 6.02325 0.0 -10.87354 0.0 7.57489 -17.6459 13.4054 0.0 26.6107 0.0 18.9729 11.99231 -21.963 0.0 -26.6091 0.0 
  -4.703070068359375 0.5794070053100586 10.27969970703125 -68.8144 84.5268 57.4402 3.74248 -15.3319 1.13605 -0.202514 27.8445 -5.95036 17.6524 57.4768 -28.0809 33.9949 -50.8658 33.0266 -113.2979 3.71448 -14.6312 -18.743 5.45824 28.1514 0.0 40.2833 0.0 10.9908 -4.60325 6.71968 0.0 0.0 0.0 0.0 0.0 0.0 114.3527 -0.967962 3.71077 9.0976 21.7315 9.93571 0.0 63.2856 0.0 18.1855 3.90787 7.1412 0.0 0.0 0.0 0.0 0.0 0.0 -0.99328 9.81504 12.4233 0.0 3.99358 0.0 -1.4555 3.9852 6.22967 0.0 -10.824511 0.0 7.13585 -18.0602 13.321 0.0 22.8178 0.0 17.5141 12.83987 -20.8496 0.0 -26.7341 0.0 
  -4.696809997558594 0.4746179962158203 10.26199951171875 -70.0066 84.8054 59.1528 4.14241 -15.8434 1.36563 -0.489412 28.3421 -5.92183 16.712 56.4691 -27.3201 33.7266 -50.6788 32.3591 -113.1926 3.98311 -14.8081 -18.6376 6.49533 28.087 0.0 40.3491 0.0 10.9705 -4.48298 7.52364 0.0 0.0 0.0 0.0 0.0 0.0 114.5683 -0.724518 3.90896 9.71964 21.3382 11.9309 0.0 63.1374 0.0 16.7959 4.60792 9.47233 0.0 0.0 0.0 0.0 0.0 0.0 -1.28738 10.3509 12.1352 0.0 3.52497 0.0 -1.49978 3.7053003 6.02973 0.0 -10.7840805 0.0 6.69147 -18.094 13.25 0.0 18.7717 0.0 16.016 13.93694 -19.7892 0.0 -26.5239 0.0 
  -4.691530151367187 0.3697829818725586 10.244200439453126 -71.4165 85.0972 61.3687 4.50269 -16.1018 1.57184 -0.75525 28.457 -5.91023 16.4068 55.6555 -27.2599 33.8445 -50.6484 32.0925 -113.2288 4.17092 -14.9832 -18.6345 7.42003 28.1153 0.0 40.5721 0.0 11.2219 -4.35268 8.3822 0.0 0.0 0.0 0.0 0.0 0.0 114.827896 -0.77186 3.96323 10.269 20.9527 13.7563 0.0 62.5032 0.0 14.6457 6.06652 11.7619 0.0 0.0 0.0 0.0 0.0 0.0 -1.5126 10.7339 11.7919 0.0 3.27196 0.0 -1.45176 3.4025002 5.70009 0.0 -10.838921 0.0 6.14713 -17.9698 12.9762 0.0 14.6609 0.0 14.8931 15.232594 -18.9073 0.0 -26.6489 0.0 
  -4.6885400390625 0.26379999160766604 10.23010009765625 -72.527 85.39 63.4537 4.80382 -16.5157 1.66129 -1.02805 28.8471 -5.99714 15.9035 54.775 -26.9481 33.8749 -50.4874 31.621 -113.2037 4.37449 -15.1864 -18.7319 8.00182 27.9353 0.0 41.0162 0.0 11.5643 -4.0831 9.2419 0.0 0.0 0.0 0.0 0.0 0.0 114.9637 -0.51744 4.18832 10.8916 20.3088 15.1155 0.0 61.5358 0.0 12.0874 7.1144 12.6 0.0 0.0 0.0 0.0 0.0 0.0 -1.6854 11.0351 11.3878 0.0 3.2343 0.0 -1.44845 3.1503 5.30321 0.0 -10.9537 0.0 5.54986 -17.6757 12.5582 0.0 10.602 0.0 13.8312 16.80649 -18.2934 0.0 -26.9247 0.0 
  -4.689169921875 0.15449099540710448 10.218900146484375 -72.7973 85.6477 64.9574 5.01987 -16.8735 1.64639 -1.20871 29.2886 -6.14694 15.6006 53.8964 -26.8801 34.0238 -50.3802 31.2969 -113.212 4.58543 -15.3197 -18.8918 8.36211 27.744 0.0 41.6973 0.0 11.9835 -3.88434 9.52672 0.0 0.0 0.0 0.0 0.0 0.0 115.099396 -0.345089 4.44632 11.4061 19.6618 16.2858 0.0 60.2305 0.0 9.39084 7.91909 13.2657 0.0 0.0 0.0 0.0 0.0 0.0 -1.7486 11.3167 10.8543 0.0 3.40652 0.0 -1.41072 2.9179 4.76953 0.0 -11.03908 0.0 4.8975 -17.1634 11.7863 0.0 6.73911 0.0 12.6534 18.30132 -17.6696 0.0 -26.706501 0.0 
  -4.693469848632812 0.04352570056915283 10.21030029296875 -72.3272 85.832 65.8969 5.16157 -17.146 1.53291 -1.21832 29.7747 -6.34414 15.3768 53.0349 -26.9205 34.3069 -50.3764 31.0887 -113.2968 4.73283 -15.4223 -19.103 8.59964 27.5979 0.0 42.4989 0.0 12.2332 -3.62326 9.35987 0.0 0.0 0.0 0.0 0.0 0.0 115.1463 -0.217746 4.76588 11.8877 18.9153 17.2457 0.0 58.7045 0.0 6.60164 8.09124 14.2139 0.0 0.0 0.0 0.0 0.0 0.0 -1.66911 11.537 10.1766 0.0 3.85451 0.0 -1.45223 2.6386003 4.1803 0.0 -11.22028 0.0 4.30359 -16.4002 10.7013 0.0 3.17446 0.0 12.2322 19.49435 -16.9963 0.0 -26.5033 0.0 
  -4.702120056152344 -0.07428629875183106 10.202899780273437 -70.5248 85.9836 65.7281 5.09002 -17.2303 1.22472 -0.923112 30.0113 -6.60925 15.2975 52.4326 -27.1612 34.7172 -50.6163 30.9186 -113.562 4.76989 -14.6908 -19.2605 8.93053 27.0832 0.0 43.348 0.0 12.677 -3.35541 8.59563 0.0 0.0 0.0 0.0 0.0 0.0 115.1269 -0.156266 4.56575 12.0709 18.2847 18.4204 0.0 56.6662 0.0 3.38747 8.21317 14.9278 0.0 0.0 0.0 0.0 0.0 0.0 -1.50135 11.7601 9.2259 0.0 4.51628 0.0 -1.55613 2.3493004 3.68405 0.0 -11.56858 0.0 3.74529 -15.4084 9.33784 0.0 0.194989 0.0 12.5329 20.17326 -16.2494 0.0 -26.7066 0.0 
  -4.715339965820313 -0.1894379997253418 10.196500244140625 -68.1293 86.1857 64.809 4.94687 -17.2748 1.03595 -0.539579 30.4384 -6.66899 15.2958 51.4856 -27.5825 35.2667 -50.809 30.8372 -113.7993 4.84923 -15.2323 -19.6548 8.7543 27.9089 0.0 44.3464 0.0 12.9286 -3.18412 7.71403 0.0 0.0 0.0 0.0 0.0 0.0 114.9515 -0.242505 5.22445 12.575 17.4839 18.8593 0.0 54.3612 0.0 0.748666 8.40634 15.9312 0.0 0.0 0.0 0.0 0.0 0.0 -1.35824 11.9126 8.54126 0.0 5.33687 0.0 -1.77136 2.1581001 3.07219 0.0 -11.80803 0.0 3.31959 -14.7546 9.18047 0.0 -1.2567 0.0 14.7823 19.38102 -16.2689 0.0 -25.4494 0.0 
